<?xml version="1.0" encoding="UTF-8"?>
<svg enable-background="new 0 0 1046 196" version="1.1" viewBox="0 0 1046 196" xml:space="preserve" xmlns="http://www.w3.org/2000/svg" xmlns:cc="http://creativecommons.org/ns#" xmlns:dc="http://purl.org/dc/elements/1.1/" xmlns:rdf="http://www.w3.org/1999/02/22-rdf-syntax-ns#"><metadata><rdf:RDF><cc:Work rdf:about=""><dc:format>image/svg+xml</dc:format><dc:type rdf:resource="http://purl.org/dc/dcmitype/StillImage"/><dc:title/></cc:Work></rdf:RDF></metadata>
<style type="text/css">
	.st0{fill:#3B56A6;}
</style>

	<path class="st0" d="m306.9 113.6c-0.7 2.3-1.8 2.4-2.5 0l-14.2-46.9c-0.7-2.3-3.3-4.2-5.7-4.2h-15.5c-2.4 0-5 1.9-5.7 4.3l-13.8 47.1c-0.7 2.3-1.8 2.3-2.4 0l-12.8-47.1c-0.6-2.4-3.2-4.3-5.6-4.3h-15.4c-2.4 0-3.9 1.9-3.2 4.2l23.7 78.9c0.7 2.3 3.3 4.2 5.7 4.2h15.3c2.4 0 5-1.9 5.7-4.2l15.1-50.7c0.7-2.3 1.8-2.3 2.5 0l14.7 50.7c0.7 2.3 3.2 4.3 5.7 4.3h15.5c2.4 0 5-1.9 5.7-4.2l23.5-78.9c0.7-2.3-0.7-4.2-3.2-4.2h-14.4c-2.4 0-5 1.9-5.6 4.3l-13.1 46.7z"/>
	<path class="st0" d="m372 119.4c0-2.4 2-4.4 4.4-4.4h45.4c2.4 0 4.4-2 4.4-4.4v-8.9c0-2.4-2-4.4-4.4-4.4h-45.4c-2.4 0-4.4-2-4.4-4.4v-6.2c0-2.4 2-4.4 4.4-4.4h45.6c2.4 0 4.4-2 4.4-4.4v-11.1c0-2.4-2-4.4-4.4-4.4h-69c-2.4 0-4.4 2-4.4 4.4v78.5c0 2.4 2 4.4 4.4 4.4h69.3c2.4 0 4.4-2 4.4-4.4v-10.9c0-2.4-2-4.4-4.4-4.4h-45.9c-2.4 0-4.4-2-4.4-4.4v-6.2z"/>
	<path class="st0" d="m508.6 103.4c-1.9-2.2-4.5-3.8-7.8-4.9-3.2-1-7.5-1.3-7.5-1.3-2.4-0.1-6.4-0.3-8.9-0.3h-18c-2.4 0-6.3-0.2-8.5-0.5l-0.9-1c-0.9-1-1.4-2.9-1.4-5.5s0.5-4.5 1.4-5.5 0.9-1 0.9-1c2.2-0.3 6.1-0.5 8.5-0.5h40.3c2.4 0 4.4-2 4.4-4.4v-11.7c0-2.4-2-4.4-4.4-4.4h-44.8c-2.4 0-6.4 0.1-8.9 0.3 0 0-4.6 0.3-7.8 1.4s-5.8 2.8-7.7 4.9c-1.9 2.2-3.3 4.9-4 8.2-0.8 3.2-1.2 7-1.2 11.3 0 4.4 0.4 8.3 1.2 11.6s2.2 6.2 4.2 8.4c1.9 2.2 4.6 3.9 7.8 5s7.5 1.3 7.5 1.3c2.4 0.2 6.4 0.3 8.9 0.3h18.1c2.4 0 6.2 0.2 8.4 0.5l1 0.9c1 0.9 1.5 2.8 1.5 5.6 0 2.7-0.5 4.6-1.5 5.7l-0.9 1.1c-2.2 0.3-6 0.6-8.4 0.6h-42.4c-2.4 0-4.4 2-4.4 4.4v11.5c0 2.4 2 4.4 4.4 4.4h46.9c2.4 0 6.4-0.1 8.9-0.3 0 0 4.4-0.3 7.6-1.4s5.8-2.8 7.7-5.1c1.9-2.2 3.3-5 4.1-8.4 0.8-3.3 1.2-7.2 1.2-11.5s-0.4-8.2-1.2-11.5c-1-3.2-2.4-6-4.3-8.2z"/>
	<path class="st0" d="m516.7 77.7c0 2.4 2 4.4 4.4 4.4h20.6c2.4 0 4.4 2 4.4 4.4v58.7c0 2.4 2 4.4 4.4 4.4h14.5c2.4 0 4.4-2 4.4-4.4v-58.6c0-2.4 2-4.4 4.4-4.4h20.6c2.4 0 4.4-2 4.4-4.4v-11c0-2.4-2-4.4-4.4-4.4h-73.5c-2.4 0-4.4 2-4.4 4.4v10.9z"/>
	<path class="st0" d="m720 119.4c0-2.4 2-4.4 4.4-4.4h45.4c2.4 0 4.4-2 4.4-4.4v-8.9c0-2.4-2-4.4-4.4-4.4h-45.4c-2.4 0-4.4-2-4.4-4.4v-6.2c0-2.4 2-4.4 4.4-4.4h45.6c2.4 0 4.4-2 4.4-4.4v-11.1c0-2.4-2-4.4-4.4-4.4h-69c-2.4 0-4.4 2-4.4 4.4v78.5c0 2.4 2 4.4 4.4 4.4h69.3c2.4 0 4.4-2 4.4-4.4v-10.9c0-2.4-2-4.4-4.4-4.4h-45.9c-2.4 0-4.4-2-4.4-4.4v-6.2z"/>
	<path class="st0" d="m960 121s-0.3-2.9-1.8-5.4c-1.4-2.3-2.1-2.8-2.1-2.8-1.9-1.5-2.2-4.2-0.7-6 0 0 1.1-1.3 2.4-4.3 1.4-3.4 2.1-7.6 2.1-12.6 0-5.7-0.9-10.4-2.7-14s-4.2-6.4-7.2-8.4-6.5-3.3-10.4-4c-3.8-0.7-7.7-0.8-7.7-0.8-2.4-0.1-6.4-0.2-8.9-0.2h-43.8c-2.4 0-4.4 2-4.4 4.4v78.5c0 2.4 2 4.4 4.4 4.4h14.5c2.4 0 4.4-2 4.4-4.4v-19.7c0-2.4 2-4.4 4.4-4.4h21.9c2.4 0 6.4 0.2 8.8 0.4 0 0 1.2 0.1 2.2 1.1l1 0.9c0.3 2.4 0.5 6.4 0.5 8.8v12.9c0 2.4 2 4.4 4.4 4.4h14.5c2.4 0 4.4-2 4.4-4.4v-15.5c0.3-2.5 0.1-6.5-0.2-8.9zm-23.3-23.2c-0.5 1.3-1.1 2.3-1.9 3s-1.8 1.2-2.8 1.5l-1.1 0.3h-0.6c-0.6 0.1-1.3 0.1-1.9 0.1h-30v-20.2h30c0.7 0 1.3 0 2 0.1h0.6l1.1 0.3c1.1 0.3 2 0.7 2.8 1.5 0.8 0.7 1.4 1.7 1.9 3s0.7 3.1 0.7 5.2c-0.1 2.1-0.3 3.8-0.8 5.2z"/>
	<path class="st0" d="m867 121s-0.3-2.9-1.8-5.4c-1.4-2.3-2.1-2.8-2.1-2.8-1.9-1.5-2.2-4.2-0.7-6 0 0 1.1-1.3 2.4-4.3 1.4-3.4 2.1-7.6 2.1-12.6 0-5.7-0.9-10.4-2.7-14s-4.2-6.4-7.2-8.4-6.5-3.3-10.4-4c-3.8-0.7-7.7-0.8-7.7-0.8-2.4-0.1-6.4-0.2-8.9-0.2h-43.8c-2.4 0-4.4 2-4.4 4.4v78.5c0 2.4 2 4.4 4.4 4.4h14.5c2.4 0 4.4-2 4.4-4.4v-19.7c0-2.4 2-4.4 4.4-4.4h21.9c2.4 0 6.4 0.2 8.8 0.4 0 0 1.2 0.1 2.2 1.1l1 0.9c0.3 2.4 0.5 6.4 0.5 8.8v12.9c0 2.4 2 4.4 4.4 4.4h14.7c2.4 0 4.4-2 4.4-4.4v-15.5c0-2.5-0.2-6.5-0.4-8.9zm-23.3-23.2c-0.5 1.3-1.1 2.3-1.9 3s-1.8 1.2-2.8 1.5l-1.1 0.3h-0.6c-0.6 0.1-1.3 0.1-1.9 0.1h-30v-20.2h30c0.7 0 1.3 0 2 0.1h0.6l1.1 0.3c1.1 0.3 2 0.7 2.8 1.5 0.8 0.7 1.4 1.7 1.9 3s0.7 3.1 0.7 5.2c-0.1 2.1-0.4 3.8-0.8 5.2z"/>
	<path class="st0" d="m688 111.5c-1.5-2.9-2.6-3.9-2.6-3.9-1.8-1.6-2-4.4-0.3-6.2 0 0 0.6-0.7 1.8-3.3 1.3-2.9 2-6.7 2-11.3 0-4.9-0.8-9-2.4-12.2s-3.8-5.7-6.6-7.5-6.1-3-9.9-3.7c-3.8-0.6-7.9-0.8-7.9-0.8-2.4-0.1-6.4-0.2-8.9-0.2h-43.8c-2.4 0-4.4 2-4.4 4.4v78.5c0 2.4 2 4.4 4.4 4.4h43.8c2.4 0 6.4-0.1 8.9-0.2 0 0 4.7-0.2 8.7-0.8 4-0.7 7.6-2 10.4-3.9 2.9-1.9 5.2-4.5 6.8-7.8s2.4-7.6 2.4-12.9c0.1-5.2-0.7-9.4-2.4-12.6zm-60.2-30.3h29.9c1.3 0 2.5 0.1 3.7 0.3 0.3 0.1 0.6 0.1 0.9 0.2l0.2 0.1c0.6 0.2 1.2 0.5 1.7 0.9 0.8 0.6 1.4 1.4 1.9 2.4 0.5 1.1 0.7 2.4 0.7 4.2v0.1 0.1c0 2.9-0.7 4.9-2.1 6.1s-2.1 1.3-2.1 1.3c-0.3 0-0.6 0.1-0.9 0.1-0.1 0-0.2 0-0.3 0.1-1.1 0.2-2.3 0.4-3.7 0.4h-29.9v-16.3zm39 44.6c-0.5 1.1-1.1 1.9-1.9 2.5s-1.8 1-2.9 1.3h-0.3l-0.9 0.2h-0.5c-0.7 0.1-1.3 0.1-2 0.1h-30.5v-17.1h30.5c1.3 0 2.6 0.1 3.7 0.3 0.2 0 0.4 0.1 0.5 0.1h0.4s0.6 0.1 2.2 1.2c0.9 0.6 1.5 1.7 1.9 3.1 0.3 1 0.5 2.2 0.5 3.7 0 2-0.2 3.5-0.7 4.6z"/>
	<path class="st0" d="m1025.8 62.4c-2.4 0-5.6 1.6-7 3.6l-16.5 22.6c-1.4 2-3.8 2-5.2 0l-16.4-22.6c-1.4-2-4.6-3.6-7-3.6h-17c-2.4 0-3.3 1.6-1.8 3.6l30.2 41.8c1.4 2 2.6 5.6 2.6 8v29.5c0 2.4 2 4.4 4.4 4.4h14.5c2.4 0 4.4-2 4.4-4.4v-29.3c0-2.4 1.2-6 2.6-8l30.6-42.1c1.4-2 0.6-3.6-1.8-3.6h-16.6z"/>
	
		<path class="st0" d="m42.7 58.5h24.3v60.7c0 3.4 1.2 6.3 3.6 8.6 2.4 2.4 5.3 3.6 8.6 3.6h37.8c3.4 0 6.2-1.2 8.6-3.6 2.3-2.4 3.5-5.3 3.5-8.6v-60.7h57.5c-15.1-33.8-49-57.4-88.5-57.4s-73.5 23.6-88.6 57.4h33.2zm44.3 0h22.2v65.8h-22.2v-65.8z"/>
		<path class="st0" d="m153.2 80.3v38.9c0 5-1 9.8-2.9 14.2s-4.5 8.3-7.8 11.6-7.1 5.9-11.5 7.8-9.1 2.9-14.2 2.9h-37.7c-5 0-9.8-1-14.2-2.9s-8.2-4.6-11.5-7.8c-3.3-3.3-5.9-7.1-7.8-11.6-1.9-4.4-2.9-9.1-2.9-14.2v-38.9h-40c-1.1 5.8-1.6 11.7-1.6 17.7 0 53.5 43.4 96.9 96.9 96.9s96.9-43.4 96.9-96.9c0-6-0.6-11.9-1.6-17.7h-40.1z"/>
	

</svg>
